<?xml version="1.0" standalone="no"?>
<!DOCTYPE svg PUBLIC "-//W3C//DTD SVG 20010904//EN"
 "http://www.w3.org/TR/2001/REC-SVG-20010904/DTD/svg10.dtd">
<svg version="1.0" xmlns="http://www.w3.org/2000/svg"
 width="2016.000000pt" height="2016.000000pt" viewBox="0 0 2016.000000 2016.000000"
 preserveAspectRatio="xMidYMid meet">
<metadata>
Created by potrace 1.14, written by Peter Selinger 2001-2017
</metadata>
<g transform="translate(0.000000,2016.000000) scale(0.100000,-0.100000)"
fill="#000000" stroke="none">
<path d="M16160 19504 c-140 -35 -266 -66 -280 -69 -14 -3 -61 -14 -105 -25
-44 -11 -91 -23 -105 -26 -14 -2 -33 -7 -42 -10 -9 -3 -25 -7 -35 -9 -10 -2
-128 -30 -263 -64 -135 -33 -256 -62 -270 -65 -14 -3 -52 -13 -85 -22 -33 -9
-69 -18 -80 -20 -11 -2 -49 -11 -84 -20 -36 -9 -72 -17 -80 -19 -9 -2 -45 -11
-81 -20 -36 -9 -69 -18 -75 -19 -5 -1 -45 -11 -88 -21 -75 -18 -78 -20 -74
-45 10 -52 19 -89 52 -220 34 -136 62 -248 70 -285 2 -11 11 -47 19 -80 28
-108 115 -463 120 -487 3 -13 14 -58 24 -100 11 -43 17 -78 14 -78 -2 0 -50
28 -106 61 -109 67 -117 71 -311 179 -123 68 -587 300 -601 300 -3 0 -39 15
-79 34 -40 19 -167 71 -281 116 -115 45 -218 86 -229 91 -60 26 -407 138 -585
189 -277 79 -590 156 -715 176 -22 3 -42 7 -45 9 -5 3 -252 47 -342 61 -61 9
-85 13 -138 20 -30 4 -57 8 -60 9 -3 1 -36 5 -75 9 -38 5 -77 9 -85 11 -8 2
-53 6 -100 10 -47 4 -92 8 -100 10 -8 2 -64 6 -125 10 -60 4 -121 9 -135 11
-47 5 -425 17 -570 17 -149 -1 -480 -11 -560 -18 -25 -2 -83 -7 -130 -10 -47
-3 -101 -8 -120 -10 -19 -3 -62 -7 -95 -10 -33 -3 -76 -7 -95 -10 -40 -5 -94
-12 -165 -20 -27 -4 -75 -10 -105 -15 -30 -5 -75 -12 -100 -15 -25 -3 -52 -8
-60 -10 -8 -2 -33 -6 -55 -9 -22 -4 -62 -11 -90 -16 -27 -5 -63 -12 -80 -15
-16 -2 -41 -7 -55 -10 -14 -2 -36 -7 -50 -10 -81 -16 -225 -48 -318 -71 -59
-14 -115 -27 -125 -29 -105 -22 -517 -148 -746 -229 -368 -131 -631 -242 -996
-422 -169 -84 -207 -104 -400 -212 -225 -125 -563 -338 -721 -453 -34 -24 -71
-51 -84 -59 -74 -49 -470 -356 -550 -426 -14 -12 -50 -43 -80 -69 -225 -194
-513 -472 -711 -686 -52 -56 -103 -111 -114 -123 -109 -116 -311 -362 -467
-566 -132 -174 -391 -549 -453 -657 -5 -10 -24 -40 -41 -68 -220 -353 -485
-878 -644 -1275 -23 -58 -48 -118 -55 -135 -33 -77 -198 -552 -210 -605 -2 -8
-15 -53 -30 -100 -24 -78 -72 -254 -80 -290 -2 -8 -17 -69 -33 -135 -34 -131
-82 -358 -106 -500 -9 -49 -18 -101 -21 -115 -2 -13 -7 -42 -10 -65 -4 -22 -8
-51 -10 -65 -18 -115 -27 -178 -41 -300 -2 -19 -6 -55 -9 -80 -8 -69 -13 -127
-20 -215 -4 -44 -8 -95 -10 -113 -25 -228 -25 -1031 0 -1272 2 -19 6 -74 10
-121 3 -47 7 -96 10 -110 2 -13 6 -55 10 -94 3 -38 8 -83 10 -100 8 -63 16
-123 20 -146 2 -13 6 -44 9 -69 6 -46 51 -325 61 -370 3 -14 8 -38 10 -55 18
-103 103 -472 111 -483 1 -2 76 15 166 38 89 23 170 43 178 45 15 3 211 52
240 60 82 22 259 67 275 70 11 2 20 4 20 5 0 1 7 3 15 5 13 3 81 19 120 29 98
25 469 119 480 121 8 2 130 33 270 68 140 36 480 122 754 192 275 69 503 128
507 130 3 3 0 28 -8 57 -14 54 -60 269 -68 323 -3 17 -10 53 -15 80 -5 28 -12
73 -16 100 -3 28 -8 57 -9 66 -2 9 -6 40 -9 70 -4 30 -9 74 -12 99 -2 25 -7
61 -9 80 -26 234 -27 931 0 1069 2 10 6 51 10 92 14 175 76 530 128 744 27
110 50 198 63 236 8 25 16 54 18 65 3 10 23 73 46 139 23 66 42 125 44 130 2
6 6 19 10 30 5 11 24 63 43 115 71 189 208 483 323 696 108 199 319 523 447
689 114 147 224 280 322 390 86 95 397 400 496 486 494 427 1045 765 1620 997
251 100 641 224 845 267 93 20 373 75 400 79 19 2 69 9 110 15 96 14 139 19
225 27 39 3 81 8 95 10 44 7 360 18 510 18 137 -1 361 -10 460 -19 134 -13
173 -17 189 -20 10 -2 44 -6 77 -9 32 -4 66 -8 74 -11 8 -2 35 -6 60 -9 25 -3
56 -8 70 -11 14 -3 39 -7 55 -9 17 -2 66 -12 110 -21 44 -9 89 -19 100 -21 11
-2 30 -6 42 -8 170 -34 590 -161 793 -241 320 -124 708 -313 920 -449 19 -13
64 -41 99 -64 59 -37 62 -41 40 -46 -13 -3 -116 -28 -228 -56 -112 -28 -213
-52 -225 -54 -11 -2 -28 -7 -36 -10 -8 -3 -26 -7 -40 -10 -14 -2 -110 -25
-215 -51 -104 -26 -197 -48 -205 -50 -8 -2 -53 -13 -100 -25 -47 -12 -96 -24
-110 -26 -14 -3 -34 -8 -45 -11 -29 -10 -37 -12 -72 -18 -18 -3 -52 -12 -75
-19 -40 -11 -43 -15 -41 -44 2 -17 41 -185 87 -374 47 -189 119 -482 161 -653
42 -170 78 -317 80 -326 2 -9 20 -83 40 -165 20 -82 39 -158 41 -169 9 -48 72
-296 75 -300 3 -2 65 11 139 29 152 38 715 175 743 182 9 2 27 6 40 10 12 3
33 7 47 10 14 3 59 14 100 24 68 18 743 183 793 195 12 2 67 16 122 30 91 23
156 39 210 50 11 2 112 27 225 55 113 28 232 57 265 65 33 9 69 17 80 19 11 2
40 10 65 17 25 7 52 14 60 15 8 2 146 35 305 74 160 40 297 73 305 75 14 3
112 26 518 126 67 17 132 32 142 35 41 9 57 13 140 34 47 12 92 23 100 25 330
71 541 198 715 430 69 93 152 276 170 375 3 14 9 48 14 75 20 108 11 272 -24
440 -3 11 -34 139 -70 285 -37 146 -68 276 -71 290 -3 14 -11 50 -19 80 -29
111 -74 296 -78 320 -3 14 -10 45 -17 70 -7 25 -13 52 -15 60 -2 8 -24 97 -49
198 -25 100 -48 193 -50 205 -2 12 -30 126 -61 252 -31 127 -58 237 -60 245
-11 48 -117 479 -181 740 -42 168 -77 312 -79 320 -2 8 -22 92 -45 185 -23 94
-43 179 -46 190 -2 11 -22 94 -45 185 -22 91 -43 175 -45 186 -2 12 -16 66
-30 120 -14 55 -27 108 -29 119 -1 11 -12 58 -25 105 -12 47 -24 95 -26 106
-2 12 -15 65 -29 118 -14 53 -25 98 -25 101 0 7 13 10 -270 -61z"/>
<path d="M18495 12384 c-71 -19 -138 -36 -147 -38 -9 -3 -88 -23 -175 -45 -87
-22 -417 -105 -733 -185 -316 -80 -674 -171 -795 -201 -121 -31 -227 -58 -235
-60 -8 -2 -88 -22 -178 -45 -90 -23 -173 -43 -184 -45 -11 -2 -28 -7 -38 -10
-10 -3 -27 -8 -37 -10 -10 -2 -72 -18 -138 -35 -149 -39 -147 -38 -165 -39
-36 -3 -44 -17 -32 -63 14 -54 41 -175 47 -208 3 -14 7 -36 10 -50 13 -59 16
-80 30 -170 8 -52 17 -104 19 -115 2 -11 7 -47 10 -80 4 -33 9 -67 11 -75 2
-8 7 -55 10 -104 4 -50 9 -98 10 -108 21 -106 21 -779 0 -918 -2 -14 -6 -61
-10 -105 -4 -44 -8 -87 -10 -95 -1 -8 -6 -42 -10 -75 -3 -33 -9 -76 -11 -95
-7 -53 -33 -209 -44 -260 -5 -25 -12 -57 -15 -72 -11 -59 -17 -85 -35 -158
-10 -41 -21 -86 -24 -100 -17 -89 -119 -416 -184 -591 -64 -170 -211 -508
-261 -599 -4 -8 -39 -71 -76 -140 -92 -170 -210 -360 -314 -509 -47 -68 -93
-133 -101 -145 -33 -48 -210 -268 -294 -366 -128 -150 -468 -487 -622 -616
-257 -217 -595 -456 -843 -597 -184 -103 -345 -186 -556 -282 -283 -130 -701
-267 -1070 -351 -11 -3 -31 -7 -45 -10 -14 -2 -36 -7 -50 -10 -36 -8 -44 -10
-150 -28 -52 -9 -104 -18 -115 -20 -31 -6 -118 -19 -140 -21 -11 -1 -54 -6
-95 -10 -41 -4 -83 -9 -94 -11 -101 -19 -849 -27 -1011 -11 -44 4 -102 10
-130 13 -97 9 -301 36 -340 44 -22 5 -60 11 -85 15 -25 3 -52 8 -60 10 -8 2
-31 7 -50 10 -19 3 -75 15 -125 26 -49 11 -98 22 -107 24 -216 48 -646 187
-863 280 -148 63 -198 86 -320 146 -164 81 -266 135 -390 209 -140 83 -136 74
-48 96 43 10 83 19 88 20 6 1 114 28 240 59 127 32 235 58 240 59 6 1 119 29
253 61 180 44 242 63 242 74 0 8 -16 80 -36 160 -20 80 -37 153 -39 161 -2 8
-11 44 -20 80 -9 36 -19 76 -21 90 -3 14 -8 34 -11 45 -4 11 -8 25 -9 32 -1 7
-9 40 -18 75 -55 223 -78 316 -82 338 -3 14 -10 43 -16 65 -5 22 -12 48 -14
57 -6 28 -10 44 -49 198 -20 80 -38 154 -40 165 -7 29 -33 138 -56 230 -11 44
-22 87 -24 96 -20 91 -49 205 -54 211 -4 4 -31 1 -61 -7 -44 -11 -221 -54
-290 -70 -8 -2 -62 -16 -120 -30 -58 -15 -113 -28 -123 -30 -9 -2 -45 -11 -80
-20 -34 -9 -73 -19 -87 -21 -25 -5 -510 -124 -695 -170 -55 -14 -107 -27 -115
-29 -52 -11 -349 -83 -540 -130 -124 -31 -235 -58 -246 -61 -12 -2 -102 -24
-200 -48 -99 -25 -228 -57 -289 -71 -140 -34 -122 -29 -245 -60 -58 -14 -177
-43 -265 -65 -88 -21 -307 -75 -486 -119 -179 -44 -336 -82 -350 -84 -13 -3
-44 -10 -69 -17 -25 -7 -52 -14 -60 -15 -161 -35 -302 -77 -389 -117 -260
-119 -476 -368 -555 -640 -34 -117 -37 -137 -42 -278 -4 -137 7 -209 81 -500
20 -80 39 -153 41 -164 2 -10 24 -102 49 -205 26 -102 48 -193 50 -201 2 -8
26 -109 55 -225 28 -115 67 -275 87 -355 19 -80 36 -152 38 -160 25 -100 37
-149 41 -166 2 -12 47 -197 100 -410 53 -214 97 -396 99 -404 2 -8 8 -35 14
-60 7 -25 14 -54 16 -65 3 -11 13 -56 24 -100 17 -69 24 -98 37 -150 14 -62
126 -516 131 -535 3 -14 8 -33 10 -43 1 -10 21 -91 44 -180 22 -89 42 -170 44
-180 3 -10 7 -27 10 -37 3 -10 8 -27 10 -37 2 -10 9 -40 15 -68 6 -27 13 -57
15 -65 2 -8 27 -109 55 -225 29 -116 54 -218 56 -229 2 -10 5 -20 6 -22 2 -1
75 15 163 37 88 22 169 41 180 43 36 8 479 116 519 127 22 6 46 12 55 14 9 2
75 18 146 35 72 17 137 33 145 35 8 2 71 18 140 35 69 17 132 33 140 35 64 14
293 69 325 78 22 6 42 11 45 12 3 0 40 9 83 19 84 21 84 21 66 91 -5 22 -12
49 -14 60 -6 24 -41 166 -90 365 -20 80 -38 156 -41 170 -3 14 -21 88 -40 165
-20 77 -37 148 -39 157 -2 9 -15 63 -29 120 -14 57 -44 180 -66 273 -23 94
-43 176 -45 182 -3 10 0 10 17 0 12 -6 27 -16 32 -20 36 -27 423 -267 431
-267 2 0 28 -14 57 -31 210 -125 577 -309 828 -416 58 -24 119 -50 135 -58 72
-32 210 -86 330 -129 72 -26 139 -51 150 -56 21 -10 310 -103 385 -125 25 -7
77 -22 115 -34 68 -20 371 -99 404 -106 9 -1 79 -17 156 -33 77 -17 151 -33
165 -35 14 -3 41 -8 60 -12 19 -3 42 -7 50 -9 8 -1 29 -5 45 -9 17 -3 47 -9
68 -12 20 -3 54 -7 75 -10 20 -3 60 -10 87 -15 28 -5 73 -12 100 -15 28 -3 59
-8 70 -10 11 -3 43 -7 70 -9 63 -6 148 -15 198 -21 21 -3 71 -8 110 -11 40 -3
90 -7 112 -10 239 -26 1133 -26 1345 0 14 2 66 7 115 10 85 6 111 9 213 21 23
3 63 7 90 10 26 3 76 10 112 15 36 5 83 12 105 15 204 28 573 99 760 146 44
11 87 22 95 24 55 12 95 23 265 71 648 182 1311 455 1885 776 84 47 228 131
258 150 15 10 34 21 42 25 43 21 348 220 524 344 67 46 340 250 346 258 3 4
37 31 75 61 39 30 75 59 82 65 7 5 18 15 25 21 314 257 769 699 1008 979 24
28 46 52 49 55 7 6 123 145 213 256 52 63 190 247 346 459 66 91 257 386 355
550 174 291 371 676 517 1010 205 468 423 1142 516 1590 2 11 13 61 24 110 11
50 22 101 24 115 3 14 9 50 15 80 6 30 13 69 16 85 2 17 7 39 9 50 2 11 7 43
10 70 4 28 9 57 11 65 2 8 6 38 10 65 3 28 8 57 10 65 2 8 6 42 10 75 3 33 8
69 10 80 4 21 15 112 20 180 10 115 16 185 20 225 27 285 27 1134 0 1360 -2
19 -7 71 -10 115 -3 44 -8 91 -10 105 -2 14 -6 59 -10 100 -3 41 -8 82 -10 90
-2 8 -7 40 -10 70 -5 46 -20 143 -40 270 -8 50 -35 206 -40 230 -3 14 -8 39
-11 55 -3 17 -14 72 -25 124 -69 318 -74 336 -95 337 -10 1 -77 -14 -149 -32z"/>
</g>
</svg>
